<svg width="48" height="48" viewBox="0 0 48 48" fill="none" xmlns="http://www.w3.org/2000/svg">
<g clip-path="url(#clip0_20_2638)">
<mask id="mask0_20_2638" style="mask-type:luminance" maskUnits="userSpaceOnUse" x="0" y="0" width="48" height="48">
<path d="M48 0H0V48H48V0Z" fill="white"/>
</mask>
<g mask="url(#mask0_20_2638)">
<path d="M24 22.999C26.209 22.999 28 21.208 28 18.999C28 16.79 26.209 14.999 24 14.999C21.791 14.999 20 16.79 20 18.999C20 21.208 21.791 22.999 24 22.999Z" stroke="#111111" stroke-width="2" stroke-linecap="round" stroke-linejoin="round"/>
<path d="M31.5 32.999C31.5 29.685 28.142 26.999 24 26.999C19.858 26.999 16.5 29.685 16.5 32.999" stroke="#111111" stroke-width="2" stroke-linecap="round"/>
<path d="M41 25.888V11.407C41 7.868 38.314 5 35 5H13C9.686 5 7 7.868 7 11.407V39.174C7 41.027 7.968 43.334 10.157 43.259C10.98 43.231 11.741 42.831 12.436 42.39C13.239 41.88 14 41.302 14.708 40.666C15.333 40.104 15.875 39.426 16.766 39.315C18.297 39.125 19.636 40.687 20.76 41.515C21.727 42.226 22.815 42.853 24.011 42.948" stroke="#111111" stroke-width="2" stroke-linecap="round" stroke-linejoin="round"/>
<path d="M36 44C40.418 44 44 40.418 44 36C44 31.582 40.418 28 36 28C31.582 28 28 31.582 28 36C28 40.418 31.582 44 36 44Z" fill="#29C78E"/>
<path d="M33 36.225L35.174 38.499L39 34.499" stroke="white" stroke-width="2" stroke-linecap="round" stroke-linejoin="round"/>
</g>
</g>
<defs>
<clipPath id="clip0_20_2638">
<rect width="48" height="48" fill="white"/>
</clipPath>
</defs>
</svg>
