<svg width="48" height="48" viewBox="0 0 48 48" fill="none" xmlns="http://www.w3.org/2000/svg">
<g clip-path="url(#clip0_20_2435)">
<mask id="mask0_20_2435" style="mask-type:luminance" maskUnits="userSpaceOnUse" x="0" y="0" width="48" height="48">
<path d="M48 0H0V48H48V0Z" fill="white"/>
</mask>
<g mask="url(#mask0_20_2435)">
<path d="M41 25.888V11.407C41 7.868 38.314 5 35 5H13C9.686 5 7 7.868 7 11.407V39.174C7 41.027 7.968 43.334 10.157 43.259C10.98 43.231 11.741 42.831 12.436 42.39C13.239 41.88 14 41.302 14.708 40.666C15.333 40.104 15.875 39.426 16.766 39.315C18.297 39.125 19.636 40.687 20.76 41.515C21.727 42.226 22.815 42.853 24.011 42.948" stroke="#111111" stroke-width="2" stroke-linecap="round" stroke-linejoin="round"/>
<path d="M18 22.999H30" stroke="#111111" stroke-width="2" stroke-linecap="round" stroke-linejoin="round"/>
<path d="M16 14.999H32" stroke="#111111" stroke-width="2" stroke-linecap="round" stroke-linejoin="round"/>
<path d="M41.756 35.512L42.84 34.426C43.554 33.712 43.931 33.072 43.991 32.47C44.062 31.747 43.685 30.983 42.84 30.138C42.075 29.373 41.376 28.998 40.711 28.998C40.651 28.998 40.591 29.002 40.532 29.008C39.928 29.07 39.288 29.448 38.574 30.163L37.499 31.237C38.306 33.175 39.822 34.698 41.756 35.512Z" fill="#29C78E"/>
<path d="M36.3469 32.3901L29.9839 38.7501C29.7649 38.9691 29.5239 39.4471 29.4749 39.7541L29.0139 43.0171C28.9669 43.3461 29.0359 43.6211 29.2079 43.7911C29.3799 43.9631 29.6569 44.0301 29.9819 43.9851L33.2599 43.5241C33.5599 43.4761 34.0469 43.2341 34.2299 43.0361L40.6069 36.6611C38.7679 35.7321 37.2709 34.2321 36.3469 32.3901Z" fill="#29C78E"/>
</g>
</g>
<defs>
<clipPath id="clip0_20_2435">
<rect width="48" height="48" fill="white"/>
</clipPath>
</defs>
</svg>
