<svg width="48" height="48" viewBox="0 0 48 48" fill="none" xmlns="http://www.w3.org/2000/svg">
<g clip-path="url(#clip0_20_2526)">
<mask id="mask0_20_2526" style="mask-type:luminance" maskUnits="userSpaceOnUse" x="0" y="0" width="48" height="48">
<path d="M48 0H0V48H48V0Z" fill="white"/>
</mask>
<g mask="url(#mask0_20_2526)">
<path d="M33 14C33 18.971 28.971 23 24 23C19.029 23 15 18.971 15 14C15 9.029 19.029 5 24 5C28.971 5 33 9.029 33 14Z" stroke="#111111" stroke-width="2" stroke-linecap="round" stroke-linejoin="round"/>
<path d="M7 42C7 34.268 13.268 28 21 28H27C29.548 28 31.936 28.681 33.994 29.87" stroke="#111111" stroke-width="2" stroke-linecap="round" stroke-linejoin="round"/>
<path d="M29.256 35.513L30.34 34.427C31.054 33.713 31.431 33.073 31.491 32.471C31.562 31.748 31.185 30.984 30.34 30.139C29.575 29.374 28.876 28.999 28.211 28.999C28.151 28.999 28.091 29.003 28.032 29.009C27.428 29.071 26.788 29.449 26.074 30.164L24.999 31.238C25.806 33.176 27.322 34.699 29.256 35.513Z" fill="white"/>
<path d="M23.8469 32.391L17.4839 38.751C17.2649 38.97 17.0239 39.448 16.9749 39.755L16.5139 43.018C16.4669 43.347 16.5359 43.622 16.7079 43.792C16.8799 43.964 17.1569 44.031 17.4819 43.986L20.7599 43.525C21.0599 43.477 21.5469 43.235 21.7299 43.037L28.1069 36.662C26.2679 35.733 24.7709 34.233 23.8469 32.391Z" fill="white"/>
<path d="M41.756 35.513L42.84 34.427C43.554 33.713 43.931 33.073 43.991 32.471C44.062 31.748 43.685 30.984 42.84 30.139C42.075 29.374 41.376 28.999 40.711 28.999C40.651 28.999 40.591 29.003 40.532 29.009C39.928 29.071 39.288 29.449 38.574 30.164L37.499 31.238C38.306 33.176 39.822 34.699 41.756 35.513Z" fill="#29C78E"/>
<path d="M36.3469 32.391L29.9839 38.751C29.7649 38.97 29.5239 39.448 29.4749 39.755L29.0139 43.018C28.9669 43.347 29.0359 43.622 29.2079 43.792C29.3799 43.964 29.6569 44.031 29.9819 43.986L33.2599 43.525C33.5599 43.477 34.0469 43.235 34.2299 43.037L40.6069 36.662C38.7679 35.733 37.2709 34.233 36.3469 32.391Z" fill="#29C78E"/>
</g>
</g>
<defs>
<clipPath id="clip0_20_2526">
<rect width="48" height="48" fill="white"/>
</clipPath>
</defs>
</svg>
